/* XPM */
static char *a61198b524d044518cd79800f7881206djUZdWhPaFXL1nfz[] = {
/* columns rows colors chars-per-pixel */
"64 64 3 1 ",
"  c #F7C574",
". c #B0ABAB",
"X c #FCDDA9",
/* pixels */
"................................................................",
".                                                              .",
".                                                              .",
".                                                              .",
".    X       X                                                 .",
".    XX     XX                                                 .",
".    XXX   XXX                                                 .",
".     XXX XXX                                                  .",
".    X XXXXX X                                                 .",
".    XX XXX XX                           X       X             .",
".    XXX X XXX                           XX     XX             .",
".     XXX XXX                            XXX   XXX             .",
".    X XXXXX X                            XXX XXX              .",
".    XX XXX XX                           X XXXXX X             .",
".    XXX X XXX                           XX XXX XX             .",
".     XXX XXX                            XXX X XXX             .",
".    X XXXXX X                            XXX XXX              .",
".    XX XXX XX                           X XXXXX X             .",
".    XXX X XXX                           XX XXX XX             .",
".     XXX XXX                            XXX X XXX             .",
".    X XXXXX X                            XXX XXX              .",
".    XX XXX XX                           X XXXXX X             .",
".    XXX X XXX                           XX XXX XX             .",
".     XXX XXX                            XXX X XXX             .",
".      XXXXX                              XXX XXX              .",
".       XXX                              X XXXXX X             .",
".       XXX           X       X          XX XXX XX             .",
".       XXX           XX     XX          XXX X XXX             .",
".       XXX           XXX   XXX           XXX XXX              .",
".       XXX            XXX XXX             XXXXX               .",
".       XXX           X XXXXX X             XXX                .",
".       XXX           XX XXX XX             XXX                .",
".       XXX           XXX X XXX             XXX                .",
".       XXX            XXX XXX              XXX                .",
".       XXX           X XXXXX X             XXX                .",
".       XXX           XX XXX XX             XXX                .",
".       XXX           XXX X XXX             XXX                .",
".       XXX            XXX XXX              XXX                .",
".       XXX           X XXXXX X             XXX                .",
".                     XX XXX XX             XXX                .",
".                     XXX X XXX             XXX                .",
".                      XXX XXX              XXX                .",
".                     X XXXXX X             XXX                .",
".                     XX XXX XX             XXX                .",
".                     XXX X XXX                                .",
".                      XXX XXX                                 .",
".                       XXXXX                                  .",
".                        XXX                                   .",
".                        XXX                                   .",
".                        XXX                                   .",
".                        XXX                                   .",
".                        XXX                                   .",
".                        XXX                                   .",
".                        XXX                                   .",
".                        XXX                                   .",
".                        XXX                                   .",
".                        XXX                                   .",
".                        XXX                                   .",
".                        XXX                                   .",
".                        XXX                                   .",
".                        XXX                                   .",
".                                                              .",
".                                                              .",
"................................................................"
};
