/* XPM */
static char *a1a804730e0c40fc954f224c44840a8avOI8qOVIynxOGT2Y[] = {
/* columns rows colors chars-per-pixel */
"64 64 3 1 ",
"  c #5E3E30",
". c #8F5E49",
"X c #B0ABAB",
/* pixels */
"XXXXXXXXXXXXXXXXXXXXXXXXXXXXXXXXXXXXXXXXXXXXXXXXXXXXXXXXXXXXXXXX",
"X..............................................................X",
"X..............................................................X",
"X................................. ............................X",
"X................................ . ...........................X",
"X..............................................................X",
"X..... ................................................ .......X",
"X.... . .............................................. . ......X",
"X..............................................................X",
"X.................. ...........................................X",
"X................. . ..........................................X",
"X......................................... ....................X",
"X........................................ . ...................X",
"X..............................................................X",
"X......... ....................................................X",
"X........ . ...................................................X",
"X..............................................................X",
"X................................................... ..........X",
"X.................................................. . .........X",
"X............................ .................................X",
"X........................... . ................................X",
"X................. ............................................X",
"X................ . ...........................................X",
"X..............................................................X",
"X..............................................................X",
"X.... .........................................................X",
"X... . ........................................................X",
"X......................................... ....................X",
"X........................................ . ...................X",
"X.............. ...............................................X",
"X............. . ..............................................X",
"X..............................................................X",
"X................................ .............................X",
"X............................... . ..................... ......X",
"X...................................................... . .....X",
"X..............................................................X",
"X..............................................................X",
"X...................... .......................................X",
"X..................... . ......................................X",
"X..............................................................X",
"X........ ................................ ....................X",
"X....... . .............................. . ...................X",
"X..............................................................X",
"X..............................................................X",
"X............................ .................................X",
"X........................... . ................................X",
"X..............................................................X",
"X..............................................................X",
"X................................................... ..........X",
"X.................................................. . .........X",
"X............... ..............................................X",
"X.............. . .................... ........................X",
"X.................................... . .......................X",
"X..............................................................X",
"X..............................................................X",
"X........................ .....................................X",
"X... ................... . ....................................X",
"X.. . ................................................... .....X",
"X....................................................... . ....X",
"X..............................................................X",
"X..............................................................X",
"X..............................................................X",
"X..............................................................X",
"XXXXXXXXXXXXXXXXXXXXXXXXXXXXXXXXXXXXXXXXXXXXXXXXXXXXXXXXXXXXXXXX"
};
