/* XPM */
static char *_0cb66d8444a4b66b30fb7d9756c4068XZHLv7kDx0Oj8L6a[] = {
/* columns rows colors chars-per-pixel */
"64 64 15 1 ",
"  c #B0ABAB",
". c #D3F9BC",
"X c #B4B4B4",
"o c #5E3E30",
"O c #991F27",
"+ c white",
"@ c black",
"# c #ED1C24",
"$ c #FF7E00",
"% c #464646",
"& c #A8E61D",
"* c #4D6DF3",
"= c #99D9EA",
"- c #ED3743",
"; c #5E5C5E",
/* pixels */
"                                                                ",
" .............................................................. ",
" .........................XXXXXXXXXXX.......................... ",
" ......................XXXoooooooooooXXX....................... ",
" ...................XXXoooooOOOOOOOoooooXXX.................... ",
" ................XXXoooooOOOOOOOOOOOOOoooooXXX................. ",
" ..............XXoooooOOOOOOOOOOOOOOOOOOOoooooXX............... ",
" .............XooooOOOOOOOOOOOOOOOOOOOOOOOOOooooX.............. ",
" ............XoooOOOOOOOOOOOOOOOOOOOOOOOOOOOOOoooX............. ",
" ...........XoooOOOOOOOOOOOOOOOOOOOOOOOOOOOOOOOoooX............ ",
" ..........XoooOOOOOO+++++++++++++++++++++OOOOOOoooX........... ",
" .........XoooOOOOOOO+@@@@@@@@@@@@@@@@@@@+OOOOOOOoooX.......... ",
" ........XoooOOOOOOOO+@@@@@##@@@@@##@@@@@+OOOOOOOOoooX......... ",
" .......XoooOOOOOOOOO+@@@@@@##@@@##@@@@@@+OOOOOOOOOoooX........ ",
" ......XoooOOOOOOOOOO+@@@@@@@##@##@@@@@@@+OOOOOOOOOOoooX....... ",
" .....XoooOOOOOOOOOOO+@@@@@@@@###@@@@@@@@+OOOOOOOOOOOoooX...... ",
" .....XooOOOOOOOOOOOO+@@@@@@@@###@@@@@@@@+OOOOOOOOOOOOooX...... ",
" .....XoOOOOOOOOOOOOO+@@@@@@@##@##@@@@@@@+OOOOOOOOOOOOOoX...... ",
" .....X+OOOOOOOOOOOOO+@@@@@@##@@@##@@@@@@+OOOOOOOOOOOOO+X...... ",
" .....X+OOOOOOOOOOOOO+@@@@@##@@@@@##@@@@@+OOOOOOOOOOOOO+X...... ",
" .....X+OOOOOOOOOOOOO+@@@@@@@@@@@@@@@@@@@+OOOOOOOOOOOOO+X...... ",
" .....X+OOOOOOOOOOOOO+++++++++++++++++++++OOOOOOOOOOOOO+X...... ",
" .....X+OOOOOOOOOOOOOOOOOOOOOOOOOOOOOOOOOOOOOOOOOOOOOOO+X...... ",
" .....X+OOOOOOOOOOOOOOOOOOOOOOOOOOOOOOOOOOOOOOOOOOOOOOO+X...... ",
" .....X+OOOOOOOOOOOOOOOOOOOOOOOOOOOOOOOOOOOOOOOOOOOOOOO+X...... ",
" .....X+OOOOOOOOOOOOOOOOOOOOOOOOOOOOOOOOOOOOOOOO$OOOOOO+X...... ",
" .....X+OOOOOOOOOOOOOOOOOOOOOOOOOOOOOOOOOOOOOOOO%OOOOOO+X...... ",
" ..                                                  OO+X...... ",
" .  &&&&&&&&&& &&&&&&&&&&&&&&&&&&&&&&&&&&&&&&&&&&&&& OO+X...... ",
"   &&&&&&&&&&& &++++++++++++++&&&&&&&&&              OO+X...... ",
"  &&&&&&&&&&&& &+****+****+++++&&&&&&&& ===========  OO+X...... ",
"  &&&&&&&&&&&& &+*++++*++*++++++&&&&&&& =========== OOO+X...... ",
"  &&&&         &+****+*++*+++++++&&&&&& ==========  OOO+X...... ",
"  &&&& +OOOOOO &++++*+*++*++++++++&&&&& ========== OOOO+X...... ",
"       +OOOOOO &+****+****+****++++&&&& ========== OOOO+X...... ",
" .....X+OOOOOO &++++++++++++++++++++&&& ========== OOOO+X...... ",
" .....X+OOOOOO &+*+++++++++++++++++++&& =========  OOOO+X...... ",
" .....X+OOOOOO &+*++++****+++++++++++&& ========= OOOOO+X...... ",
" .....X+OOOOOO &+*++++*++*+*++*++++++&& ========= OOOOO+X...... ",
"               &+*++++*++*+*++*+****+&& ========  OOOOO+X...... ",
"  &&&&&&&&&&&& &+****+*++*+**+*+*++++&& ======== OOOOOO+X...... ",
"  &&&&&&&&&&&&     +++****+*+**+*+**+&& ======== OOOOOO+X...... ",
"  &&&&&&&&&&&&&&&&      +++*++*+*++*+&& ======== OOOOOO+X...... ",
"  &&&&&&&&&&&&&&&&&&&&&     ++++****+&&          OOOOOO+X...... ",
"  &&&&&&&&&&&&&&&&&&&&&&&&&      ++++&&&&&&&&&& +OOOOOO+X...... ",
"  &&                  &&&&&&&&&&                +OOOOOO+X...... ",
"  &&&&&&&&&&&&&&&&&&&&&&&&&&&&&&&&&&&&&&&& O & ++OOOOOO+X...... ",
"  &&&&&&&&&&&&&&&&&&&&&&&&&&&&&&&&&&&&&&&& OO & +OOOOOO+X...... ",
" &&&&&&&&&&&&&&&&&&&&&&&&&&&&&&&&&&&%%%%%%%OOO & OOOOOO-----... ",
" $&&&&&&&&&&&&&&&&&&&&&&&&&&&&&&&&%%;;;;;;;%%O+ & OOOO-+X ..-.. ",
" #&&&&&&%%%%%&&&             &&&&%;;;;;;;;;;;%++ & OO- +X .. -. ",
" &&&&&%%;;;;;%%&&&&&&&&&&&&&&&&&%;;;;;;;;;;;;;%++    OO X . ..- ",
" &&&&%;;;;;;;;;%&&&&&&&&&&&&&&&&%;;;;;;;;;;;;;%++ &&   +- -...- ",
" &&&%;;;;;;;;;;;%&&&&&&&&&&&&&&%;;;;;;;%;;;;;;;%+ &&&&   -    - ",
" &&&%;;;;;;;;;;;%&&&&&&&&&&&&&&%;;;;;;%-%;;;;;;%+ &&&&&&   ...- ",
"   %;;;;;;%;;;;;;%&&&&&&&&&&&&&%;;;;;%---%;;;;;%+ &&&&&&&&   -. ",
" ..%;;;;;%-%;;;;;%&&&&&&&&&&&&&%;;;;;;%-%;;;;;;%+ &&&&&&&&&&    ",
" ..%;;;;;;%;;;;;;%             %;;;;;;;%;;;;;;;%+ &&&&&&&&&&&&  ",
" ...%;;;;;;;;;;;%+OOOOOOOOOOO+++%;;;;;;;;;;;;;%++               ",
" ...%;;;;;;;;;;;%+++++++++++++++%;;;;;;;;;;;;;%+++++++++X...... ",
" ....%;;;;;;;;;%XXXXXXXXXXXXXXXXX%;;;;;;;;;;;%XXXXXXXXXXX...... ",
" .....%%;;;;;%%...................%%;;;;;;;%%.................. ",
" .......%%%%%.......................%%%%%%%.................... ",
"                                                                "
};
