/* XPM */
static char *ebc229183db04183f478e41c0d5e633djeykhFprjFK8kIW9[] = {
/* columns rows colors chars-per-pixel */
"64 64 11 1 ",
"  c None",
". c #464646",
"X c #5E5C5E",
"o c #ED1C24",
"O c #FF7E00",
"+ c #ED3743",
"@ c #A8E61D",
"# c #4D6DF3",
"$ c #B0ABAB",
"% c #99D9EA",
"& c white",
/* pixels */
"                                                                ",
"                                                                ",
"                                                                ",
"                                                                ",
"                                                                ",
"                                                                ",
"                                                                ",
"                                                                ",
"                                                                ",
"                                                                ",
"                                                                ",
"                                                                ",
"                                                                ",
"                                                                ",
"                                                                ",
"                                                                ",
"                                                                ",
"                                                                ",
"                                                                ",
"                                                                ",
"                                                                ",
"                                                                ",
"                                                                ",
"                                                                ",
"                                                                ",
"               O                                                ",
"               .                                                ",
"           $$$$$$$$$$$$$$$$$$$$$$$$$$$$$$$$$$$$$$$$$$$$$$$$$$   ",
"           $@@@@@@@@@@@@@@@@@@@@@@@@@@@@@@@@@@@@@$@@@@@@@@@@$$  ",
"           $$$$$$$$$$$$$$@@@@@@@@@&&&&&&&&&&&&&&@$@@@@@@@@@@@$$ ",
"           $$%%%%%%%%%%%$@@@@@@@@&&&&&####&&&&&&@$@@@@@@@@@@@@$ ",
"            $%%%%%%%%%%%$@@@@@@@&####&#&&#&&&&&&@$@@@@@@@@@@@@$ ",
"            $$%%%%%%%%%%$@@@@@@&&#&&&&#&&#&&&&&&@$$$$$$$$$@@@@$ ",
"             $%%%%%%%%%%$@@@@@&&&####&#&&#&####&@$       $@@@@$ ",
"             $%%%%%%%%%%$@@@@&&&&&&&#&####&&&&&&@$       $$$$$$ ",
"             $%%%%%%%%%%$@@@&&&&&####&&&&&&&&&&&@$              ",
"             $$%%%%%%%%%$@@&&&&&&&&&&&&&&&&####&@$              ",
"              $%%%%%%%%%$@@&&&&&&&&&&&#&&#&#&&&&@$              ",
"              $%%%%%%%%%$@@&&&&&&####&#&&#&#&##&@$              ",
"              $$%%%%%%%%$@@&#&&&&#&&#&##&#&#&&#&@$$$$$$$$$$$$$$ ",
"               $%%%%%%%%$@@&#&&&&#&&#&#&##&####&@$@@@@@@@@@@@@$ ",
"               $%%%%%%%%$@@&#&&&&#&&#&#&&#&&&$$$$$@@@@@@@@@@@@$ ",
"               $%%%%%%%%$@@&#&&&&####&&&$$$$$$@@@@@@@@@@@@@@@@$ ",
"               $$$$$$$$$$@@&####&&&&$$$$$@@@@@@@@@@@@@@@@@@@@@$ ",
"                $@@@@@@@@@@&&&&$$$$$$@@@@@@@@@@@@@@@@@@@@@@@@@$ ",
"                $$$$$$$$$$$$$$$$@@@@@@@@@@$$$$$$$$$$$$$$$$$$@@$ ",
"                 $@$ $@@@@@@@@@@@@@@@@@@@@@@@@@@@@@@@@@@@@@@@@$ ",
"                $@$  $@@@@@@@@@@@@@@@@@@@@@@@@@@@@@@@@@@@@@@@@$$",
"    +++++      $@$   .......@@@@@@@@@@@@@@@@@@@@@@@@@@@@@@@@@@@$",
"   +  $  +    $@$  ..XXXXXXX..@@@@@@@@@@@@@@@@@@@@@@@@@@@@@@@@O$",
"  +$  $  $+  $@$  .XXXXXXXXXXX.@@@@$$$$$$$$$$$$$@@@.....@@@@@@o$",
" +  $ $ $  $$$$  .XXXXXXXXXXXXX.@@@@@@@@@@@@@@@@@..XXXXX..@@@@@$",
" +   +$+ $$$@@$  .XXXXXXXXXXXXX.@@@@@@@@@@@@@@@@.XXXXXXXXX.@@@@$",
" +$$$$+$$$@@@@$ .XXXXXXX.XXXXXXX.@@@@@@@@@@@@@@.XXXXXXXXXXX.@@@$",
" +   $$$@@@@@@$ .XXXXXX.+.XXXXXX.@@@@@@@@@@@@@@.XXXXXXXXXXX.@@@$",
"  +$$$@@@@@@@@$ .XXXXX.+++.XXXXX.@@@@@@@@@@@@@.XXXXXX.XXXXXX.$$$",
" $$$@@@@@@@@@@$ .XXXXXX.+.XXXXXX.@@@@@@@@@@@@@.XXXXX.+.XXXXX.   ",
" $@@@@@@@@@@@@$ .XXXXXXX.XXXXXXX.$$$$$$$$$$$$$.XXXXXX.XXXXXX.   ",
" $$$$$$$$$$$$$$  .XXXXXXXXXXXXX.               .XXXXXXXXXXX.    ",
"                 .XXXXXXXXXXXXX.               .XXXXXXXXXXX.    ",
"                  .XXXXXXXXXXX.                 .XXXXXXXXX.     ",
"                   ..XXXXXXX..                   ..XXXXX..      ",
"                     .......                       .....        ",
"                                                                "
};
