/* XPM */
static char *_1e7bb8630e74b149ec781479fa5569b4kjqZ2o1DXP7ttvb[] = {
/* columns rows colors chars-per-pixel */
"64 64 11 1 ",
"  c None",
". c #464646",
"X c #5E5C5E",
"o c #ED1C24",
"O c #FF7E00",
"+ c #ED3743",
"@ c #A8E61D",
"# c #4D6DF3",
"$ c #B0ABAB",
"% c #99D9EA",
"& c white",
/* pixels */
"                                                                ",
"                                                                ",
"                                                                ",
"                                                                ",
"                                                                ",
"                                                                ",
"                                                                ",
"                                                                ",
"                                                                ",
"                                                                ",
"                                                                ",
"                                                                ",
"                                                                ",
"                                                                ",
"                                                                ",
"                                                                ",
"                                                                ",
"                                                                ",
"                                                                ",
"                                                                ",
"                                                                ",
"                                                                ",
"                                                                ",
"                                                                ",
"                                                                ",
"                                                O               ",
"                                                .               ",
"   $$$$$$$$$$$$$$$$$$$$$$$$$$$$$$$$$$$$$$$$$$$$$$$$$$           ",
"  $$@@@@@@@@@@$@@@@@@@@@@@@@@@@@@@@@@@@@@@@@@@@@@@@@$           ",
" $$@@@@@@@@@@@$@&&&&&&&&&&&&&&@@@@@@@@@$$$$$$$$$$$$$$           ",
" $@@@@@@@@@@@@$@&####&####&&&&&@@@@@@@@$%%%%%%%%%%%$$           ",
" $@@@@@@@@@@@@$@&#&&&&#&&#&&&&&&@@@@@@@$%%%%%%%%%%%$            ",
" $@@@@$$$$$$$$$@&####&#&&#&&&&&&&@@@@@@$%%%%%%%%%%$$            ",
" $@@@@$       $@&&&&#&#&&#&&&&&&&&@@@@@$%%%%%%%%%%$             ",
" $$$$$$       $@&####&####&####&&&&@@@@$%%%%%%%%%%$             ",
"              $@&&&&&&&&&&&&&&&&&&&&@@@$%%%%%%%%%%$             ",
"              $@&#&&&&&&&&&&&&&&&&&&&@@$%%%%%%%%%$$             ",
"              $@&#&&&&####&&&&&&&&&&&@@$%%%%%%%%%$              ",
"              $@&#&&&&#&&#&#&&#&&&&&&@@$%%%%%%%%%$              ",
" $$$$$$$$$$$$$$@&#&&&&#&&#&#&&#&####&@@$%%%%%%%%$$              ",
" $@@@@@@@@@@@@$@&####&#&&#&##&#&#&&&&@@$%%%%%%%%$               ",
" $@@@@@@@@@@@@$$$$$&&&####&#&##&#&##&@@$%%%%%%%%$               ",
" $@@@@@@@@@@@@@@@@$$$$$$&&&#&&#&#&&#&@@$%%%%%%%%$               ",
" $@@@@@@@@@@@@@@@@@@@@@$$$$$&&&&####&@@$$$$$$$$$$               ",
" $@@@@@@@@@@@@@@@@@@@@@@@@@$$$$$$&&&&@@@@@@@@@@$                ",
" $@@$$$$$$$$$$$$$$$$$$@@@@@@@@@@$$$$$$$$$$$$$$$$                ",
" $@@@@@@@@@@@@@@@@@@@@@@@@@@@@@@@@@@@@@@@@$ $@$                 ",
"$$@@@@@@@@@@@@@@@@@@@@@@@@@@@@@@@@@@@@@@@@$  $@$                ",
"$@@@@@@@@@@@@@@@@@@@@@@@@@@@@@@@@@@@.......   $@$      +++++    ",
"$O@@@@@@@@@@@@@@@@@@@@@@@@@@@@@@@@..XXXXXXX..  $@$    +  $  +   ",
"$o@@@@@@.....@@@$$$$$$$$$$$$$@@@@.XXXXXXXXXXX.  $@$  +$  $  $+  ",
"$@@@@@..XXXXX..@@@@@@@@@@@@@@@@@.XXXXXXXXXXXXX.  $$$$  $ $ $  + ",
"$@@@@.XXXXXXXXX.@@@@@@@@@@@@@@@@.XXXXXXXXXXXXX.  $@@$$$ +$+   + ",
"$@@@.XXXXXXXXXXX.@@@@@@@@@@@@@@.XXXXXXX.XXXXXXX. $@@@@$$$+$$$$+ ",
"$@@@.XXXXXXXXXXX.@@@@@@@@@@@@@@.XXXXXX.+.XXXXXX. $@@@@@@$$$   + ",
"$$$.XXXXXX.XXXXXX.@@@@@@@@@@@@@.XXXXX.+++.XXXXX. $@@@@@@@@$$$+  ",
"   .XXXXX.+.XXXXX.@@@@@@@@@@@@@.XXXXXX.+.XXXXXX. $@@@@@@@@@@$$$ ",
"   .XXXXXX.XXXXXX.$$$$$$$$$$$$$.XXXXXXX.XXXXXXX. $@@@@@@@@@@@@$ ",
"    .XXXXXXXXXXX.               .XXXXXXXXXXXXX.  $$$$$$$$$$$$$$ ",
"    .XXXXXXXXXXX.               .XXXXXXXXXXXXX.                 ",
"     .XXXXXXXXX.                 .XXXXXXXXXXX.                  ",
"      ..XXXXX..                   ..XXXXXXX..                   ",
"        .....                       .......                     ",
"                                                                "
};
