/* XPM */
static char *_4242ce58a9c4bddd88779973fbd5f69r5aoTvYxATOvzgkF[] = {
/* columns rows colors chars-per-pixel */
"64 64 11 1 ",
"  c None",
". c #5E5C5E",
"X c #FF7E00",
"o c #ED3743",
"O c #22B14C",
"+ c #A8E61D",
"@ c #4D6DF3",
"# c #B0ABAB",
"$ c #B4B4B4",
"% c #99D9EA",
"& c white",
/* pixels */
"                                                                ",
"                                                                ",
"                                                                ",
"                  #############################                 ",
"                  #+++++++++++++++++++++++++++#                 ",
"                  #+++++++++++++++++++++++++++#                 ",
"                  #+++++++++++++++++++++++++++#                 ",
"                 .#+++++++++++++++++++++++++++#.                ",
"                ..#+++++++++++++++++++++++++++#..               ",
"                ..#+++++++++++++++++++++++++++#..               ",
"                ..#++++######+++++++++++++++++#..               ",
"                ..#++++#OOOO#++$$$$$$$$+++++++#..               ",
"                ..#++++#OOOO#+++++++++++++++++#..               ",
"                ..#++++#OOOO#+++++++++++++++++#..               ",
"                ..#++++#OOOO#+++++++++++++++++#..               ",
"                ..#++++#OOOO#++++++$$$$$$$$+++#..               ",
"                ..#++++#OOOO#+++++++++++++++++#..               ",
"                ..#++++#OOOO#+++++++++++++++++#..               ",
"                ..#++++#OOOO#+++++++++++++++++#..               ",
"                 .#++++#OOOO#+++$$$$$$$$$+++++#.                ",
"                  #++++#OOOO#+++++++++++++++++#                 ",
"                  #++++#OOOO#+++++++++++++++++#                 ",
"                  #++++#OOOO#+++++++++++++++++#                 ",
"                 ##++++#OOOO#+++++++++++++++++##                ",
"                 #+++++#OOOO#++++++++++++++++++#                ",
"                 #+++++#OOOO#++++++++++++++++++#                ",
"                 #+###########################+#                ",
"                 #+#&&&&&&&&&&&###&&&&&&&&&&&#+#                ",
"                 #+#&@@@@&@@@@&###&@&&&&@@@@&#+#                ",
"                 #+#&@&&&&@&&@&###&@&&&&@&&@&#+#                ",
"                 #+#&@@@@&@&&@&###&@&&&&@&&@&#+#                ",
"                .#+#&&&&@&@&&@&###&@&&&&@&&@&#+#.               ",
"               ..#+#&@@@@&@@@@&###&@@@@&@@@@&#+#..              ",
"               ..#+#&&&&&&&&&&&###&&&&&&&&&&&#+#..              ",
"               ..#+#&&&&&&&&&&&###&@&&@&@@@@&#+#..              ",
"               ..#+#&&&&&&&&&&&###&@&&@&@&&&&#+#..              ",
"               ..#+#&&&&&&&&&&&###&@@&@&@&@@&#+#..              ",
"               ..#+#&&@@@@@@&&&###&@&@@&@&&@&#+#..              ",
"               ..#+#&&&&&&&&&&&###&@&&@&@@@@&#+#..              ",
"               ..#+#&&&&&&&&&&&###&&&&&&&&&&&#+#..              ",
"               ..#+###########################+#..              ",
"               ..#+++++++++++++++++++++++++++++#..              ",
"               ..#+++++++++++++++++++++++++++++#..              ",
"               ..#+++++++++++++++++++++++XX++++#..              ",
"               ..#+++++++++++++++++++++++++++++#..              ",
"               ..#+++++++++++++++++++++++++++++#..              ",
"                .#++#########################++#.               ",
"                 #++#%%%%%%%%%%%%%%%%%%%%%%%#++#                ",
"                 ###############################                ",
"                    #++#      #++#       #++#                   ",
"                    #++#      #++#       #++#                   ",
"          ###########++########++#########++############        ",
"          #oooooooooooooooooooooooooooooooooooooooooooo#        ",
"          #oo        oo        oo         oo         oo#        ",
"          #oo        oo        oo         oo         oo#        ",
"          #oo        oo        oo         oo         oo#        ",
"          #oo        oo        oo         oo         oo#        ",
"          #oooooooooooooooooooooooooooooooooooooooooooo#        ",
"          #oo        oo        oo         oo         oo#        ",
"          #oo        oo        oo         oo         oo#        ",
"          #oo        oo        oo         oo         oo#        ",
"          #oo        oo        oo         oo         oo#        ",
"          #oooooooooooooooooooooooooooooooooooooooooooo#        ",
"          ##############################################        "
};
