/* XPM */
static char *_5e02023dac1459ec787f6191ca87bf6Em4lpuiM9eOyQPhv[] = {
/* columns rows colors chars-per-pixel */
"64 64 3 1 ",
"  c #8F5E49",
". c #1F803A",
"X c #B0ABAB",
/* pixels */
"XXXXXXXXXXXXXXXXXXXXXXXXXXXXXXXXXXXXXXXXXXXXXXXXXXXXXXXXXXXXXXXX",
"X      X................................................X      X",
"X       X..............................................X       X",
"X        X............................................X        X",
"X         X..........................................X         X",
"X          X........................................X          X",
"X           X......................................X           X",
"XX           X....................................X           XX",
"X.X           X..................................X           X.X",
"X..X           X................................X           X..X",
"X...X           X..............................X           X...X",
"X....X           X............................X           X....X",
"X.....X           X..........................X           X.....X",
"X......X           X........................X           X......X",
"X.......X           X......................X           X.......X",
"X........X           X....................X           X........X",
"X.........X           X..................X           X.........X",
"X..........X           X................X           X..........X",
"X...........X           X..............X           X...........X",
"X............X           X............X           X............X",
"X.............X           X..........X           X.............X",
"X..............X           X........X           X..............X",
"X...............X           X......X           X...............X",
"X................X           X....X           X................X",
"X.................X           X..X           X.................X",
"X..................X           XX           X..................X",
"X...................X                      X...................X",
"X....................X                    X....................X",
"X.....................X                  X.....................X",
"X......................X     X    X     X......................X",
"X.......................X              X.......................X",
"X........................X     XX     X........................X",
"X........................X     XX     X........................X",
"X.......................X              X.......................X",
"X......................X     X    X     X......................X",
"X.....................X                  X.....................X",
"X....................X                    X....................X",
"X...................X                      X...................X",
"X..................X           XX           X..................X",
"X.................X           X..X           X.................X",
"X................X           X....X           X................X",
"X...............X           X......X           X...............X",
"X..............X           X........X           X..............X",
"X.............X           X..........X           X.............X",
"X............X           X............X           X............X",
"X...........X           X..............X           X...........X",
"X..........X           X................X           X..........X",
"X.........X           X..................X           X.........X",
"X........X           X....................X           X........X",
"X.......X           X......................X           X.......X",
"X......X           X........................X           X......X",
"X.....X           X..........................X           X.....X",
"X....X           X............................X           X....X",
"X...X           X..............................X           X...X",
"X..X           X................................X           X..X",
"X.X           X..................................X           X.X",
"XX           X....................................X           XX",
"X           X......................................X           X",
"X          X........................................X          X",
"X         X..........................................X         X",
"X        X............................................X        X",
"X       X..............................................X       X",
"X      X................................................X      X",
"XXXXXXXXXXXXXXXXXXXXXXXXXXXXXXXXXXXXXXXXXXXXXXXXXXXXXXXXXXXXXXXX"
};
